<?xml version="1.0" encoding="utf-8"?>
<!-- Generator: Adobe Illustrator 24.0.1, SVG Export Plug-In . SVG Version: 6.00 Build 0)  -->
<svg version="1.1" id="Layer_1" xmlns="http://www.w3.org/2000/svg" xmlns:xlink="http://www.w3.org/1999/xlink" x="0px" y="0px"
	 width="1200px" height="1200px" viewBox="0 0 1200 1200" style="enable-background:new 0 0 1200 1200;" xml:space="preserve">
<g id="illustration_1_">
	<path style="fill:#60504B;" d="M647.9,923.2V970c0,48.8,55.4,50.3,55.4,4.5v-51.8L647.9,923.2z"/>
	<rect x="660.3" y="944.5" style="fill:#FFFFFF;" width="30.6" height="4.4"/>
	<rect x="660.3" y="952.9" style="fill:#FFFFFF;" width="30.6" height="4.4"/>
	<rect x="660.3" y="961.4" style="fill:#FFFFFF;" width="30.6" height="4.4"/>
	<path style="fill:#60504B;" d="M544.6,923.2V970c0,48.8,55.4,50.3,55.4,4.5v-51.8L544.6,923.2z"/>
	<path style="fill:#B1C9C3;" d="M518.9,549c0,66.4,0,148.9,0,228.2c0,55.8,0,110,0,155.8c56.6,0,51.8,0,92.7,0
		c0-46.8,0-101.4,0-154.5c0-75.9,0-148.8,0-191.6c5.9,0,20.5,0,25.9,0c0,41.3,0,115.8,0,191.6c0,54.9,0,110.4,0,154.5
		c45,0,35.6,0,92.7,0c0-43,0-97.5,0-154.5c0-79.5,0-164,0-229.5H518.9z"/>
	<rect x="557" y="944.5" style="fill:#FFFFFF;" width="30.6" height="4.4"/>
	<rect x="557" y="952.9" style="fill:#FFFFFF;" width="30.6" height="4.4"/>
	<rect x="557" y="961.4" style="fill:#FFFFFF;" width="30.6" height="4.4"/>
	<g>
		<path style="fill:#60504B;" d="M675,319.9c-27.8-13.5-68.3-15.8-101.3-0.1c-5.1-10.8-14-45.8-13.1-80.4
			c1.1-40.5,15.5-80.5,65.3-80.4c47.8,0,61.8,39.1,62.5,79.7C688.4,271.8,675,319.9,675,319.9z"/>
		<circle style="fill:#DF7977;" cx="686.2" cy="233.8" r="12.1"/>
		<circle style="fill:#DF7977;" cx="563.6" cy="233.8" r="12.1"/>
		<circle id="jawMid_2_" cx="625.5" cy="284.1" r="0.8"/>
		<circle id="rightJaw7_2_" cx="614.6" cy="282.1" r="0.8"/>
		<circle id="leftJaw7_2_" cx="636.4" cy="282.1" r="0.8"/>
		<circle id="rightJaw3_2_" cx="580.3" cy="226.6" r="0.8"/>
		<circle id="rightJaw2_2_" cx="580.3" cy="217.1" r="0.8"/>
		<circle id="leftJaw3_2_" cx="668.5" cy="227" r="0.8"/>
		<circle id="leftJaw2_2_" cx="668.5" cy="217.4" r="0.8"/>
		<circle id="topMid_2_" cx="624.7" cy="166" r="0.8"/>
		<circle id="leftTop0_2_" cx="642.4" cy="168.5" r="0.8"/>
		<circle id="rightTop0_2_" cx="606.8" cy="168.5" r="0.8"/>
		<path style="fill:#60504B;" d="M651.6,162.2c1.3-3.6,2.1-7.4,2.5-11.2c2.6,3.1,3.8,7.4,3.2,11.4c-0.1,0.7-0.3,1.5-0.7,2.1
			c-0.7,0.9-1.9,1.2-3,1.4c-1.8,0.4-3.6,0.8-5.5,1C649.7,165.5,650.9,164.2,651.6,162.2z"/>
		<path style="fill:#60504B;" d="M650.5,166.7c5.8-0.4,10.8-5.7,11-11.5c2.3,1,3.4,3.9,2.7,6.3c-0.7,2.4-2.9,4.2-5.3,4.9
			c-2.4,0.7-5,0.4-7.4-0.3"/>
	</g>
	<path style="fill:#BF4C68;" d="M501.5,564.2c-1.3-73.2,11.7-128.9,32.3-167.4c12.6-23.6,28-40.7,44.8-51.6
		c14.7-9.5,30.5-14.1,46.2-13.9c15.6,0.2,31.3,5.2,45.9,14.8c16.5,10.9,31.8,27.8,44.3,50.7c21.3,38.8,34.7,94.8,33.1,167.4H501.5
		L501.5,564.2z"/>
	<line style="fill:none;" x1="741.4" y1="564.8" x2="508.6" y2="564.8"/>
	<ellipse style="fill:#FFFFFF;" cx="625.4" cy="351.3" rx="22" ry="16.3"/>
	<path style="fill:#F3AF9D;" d="M616.2,277.5"/>
	<path style="fill:#F3AF9D;" d="M614.2,265.7h20.9c0,0,4.3,61.7,5.7,85.2c-2.1,9.7-9.1,11.3-15.5,11.1c-8.2-0.2-15.9-4.7-17.1-12.5
		L614.2,265.7z"/>
	<path style="fill:#DD9B8E;" d="M614.2,265.7h20.9c1.9,19-21.7,83.8-26.9,83.8L614.2,265.7z"/>
	<g>
		<ellipse style="fill:#F3AF9D;" cx="625.2" cy="228.3" rx="56.4" ry="57.6"/>
		<circle id="jawMid_1_" cx="625.5" cy="284.1" r="0.8"/>
		<circle id="rightJaw7_1_" cx="614.6" cy="282.1" r="0.8"/>
		<circle id="leftJaw7_1_" cx="636.4" cy="282.1" r="0.8"/>
		<circle id="rightJaw3_1_" cx="580.3" cy="226.6" r="0.8"/>
		<circle id="rightJaw2_1_" cx="580.3" cy="217.1" r="0.8"/>
		<circle id="leftJaw3_1_" cx="668.5" cy="227" r="0.8"/>
		<circle id="leftJaw2_1_" cx="668.5" cy="217.4" r="0.8"/>
		<circle id="topMid_3_" cx="624.7" cy="166" r="0.8"/>
		<circle id="leftTop0_3_" cx="642.4" cy="168.5" r="0.8"/>
		<circle id="rightTop0_3_" cx="606.8" cy="168.5" r="0.8"/>
	</g>
	<g>
		<path style="fill:#2C323A;" d="M578.7,221.9c3.1-6.1,13.1-6.7,21.1-6.1c0.7,2.3,0.7,3.8-0.1,3.7
			C596.6,219.4,589.5,215.6,578.7,221.9z"/>
		<circle id="rightBrow1_1_" cx="592.5" cy="203.2" r="0.8"/>
		<circle id="rightBrow4_1_" cx="615.8" cy="206.2" r="0.8"/>
		<circle id="rightBrow3_1_" cx="606" cy="202.2" r="0.8"/>
		<circle id="rightBrow0_1_" cx="588.5" cy="206.9" r="0.8"/>
		<circle id="rightBrow2_1_" cx="598.7" cy="202.2" r="0.8"/>
	</g>
	<g>
		<path style="fill:#2C323A;" d="M666.7,220.8c-7.5-3.4-8.8-2.2-19-1c-0.3-0.8-0.5-1.7-0.1-4c6,0.5,16-2.3,21.1,6.1
			C668,221.5,667.4,221.1,666.7,220.8z"/>
		<circle id="leftBrow1_1_" cx="656.2" cy="203.6" r="0.8"/>
		<circle id="leftBrow4_1_" cx="632.6" cy="205.7" r="0.8"/>
		<circle id="leftBrow3_1_" cx="642.6" cy="202.5" r="0.8"/>
		<circle id="leftBrow0_1_" cx="660.2" cy="206.5" r="0.8"/>
		<circle id="leftBrow2_1_" cx="649.9" cy="202.1" r="0.8"/>
	</g>
	<g>
		<ellipse style="fill:#DF7977;" cx="590.1" cy="247.5" rx="7.8" ry="6.2"/>
		<ellipse style="fill:#2C323A;" cx="593" cy="231.6" rx="3.6" ry="5.8"/>
		<circle id="rightEye0_1_" cx="594.7" cy="215.1" r="0.8"/>
		<circle id="rightEye1_1_" cx="599.9" cy="211.4" r="0.8"/>
		<circle id="rightEye5_1_" cx="599.9" cy="217.4" r="0.8"/>
		<circle id="rightEye2_1_" cx="606.2" cy="211.4" r="0.8"/>
		<circle id="rightEye3_1_" cx="611.4" cy="215.6" r="0.8"/>
		<circle id="rightEye4_1_" cx="606.2" cy="216.6" r="0.8"/>
	</g>
	<g>
		<ellipse style="fill:#2C323A;" cx="654.8" cy="231.6" rx="3.6" ry="5.8"/>
		<ellipse style="fill:#DF7977;" cx="659.2" cy="247.5" rx="7.8" ry="6.2"/>
		<circle id="leftEye0_1_" cx="654.3" cy="215.1" r="0.8"/>
		<circle id="leftEye1_1_" cx="649.1" cy="211.4" r="0.8"/>
		<circle id="leftEye5_1_" cx="649.1" cy="217.4" r="0.8"/>
		<circle id="leftEye2_1_" cx="642.8" cy="211.4" r="0.8"/>
		<circle id="leftEye3_1_" cx="637.6" cy="215.6" r="0.8"/>
		<circle id="leftEye4_1_" cx="642.8" cy="216.6" r="0.8"/>
	</g>
	<g>
		<path id="rightMiddleLip_2_" d="M610.8,254.6c0.4,0,0.8,0.4,0.8,0.8s-0.4,0.8-0.8,0.8s-0.8-0.4-0.8-0.8S610.4,254.6,610.8,254.6z"
			/>
		<circle id="upperLipBottomMid_1_" cx="624.5" cy="255.1" r="0.8"/>
		<circle id="rightUpperLipBottom1_1_" cx="620.6" cy="254.6" r="0.8"/>
		<path id="leftMiddleLip_2_" d="M638.2,254.6c0.4,0,0.8,0.4,0.8,0.8s-0.4,0.8-0.8,0.8s-0.8-0.4-0.8-0.8S637.8,254.6,638.2,254.6z"
			/>
		<circle id="leftUpperLipBottom1_1_" cx="628.4" cy="254.6" r="0.8"/>
		<path style="fill:#2C323A;stroke:#2C323A;stroke-width:2;stroke-miterlimit:10;" d="M611.6,255.4c0,0,7.4-0.2,12.9-0.2
			s13.9-0.1,13.9-0.1s-6.1,4-13.9,4C616.6,259.1,611.6,255.4,611.6,255.4z"/>
		<circle id="lowerLipTopMid_2_" cx="624.5" cy="258.1" r="0.8"/>
		<circle id="rightLowerLipTop0_2_" cx="620.6" cy="257.4" r="0.8"/>
		<circle id="leftLowerLipTop0_2_" cx="628.4" cy="257.4" r="0.8"/>
	</g>
	<g>
		<path style="fill:#60504B;" d="M636.7,182.2c-0.2,8.5-8.4,18.8-25.9,23.3c-2.1,0.5,9-8.2,13.7-18.5
			c-19.7,23.6-29.8,27.3-63.8,25.6c5.1-22.7,26.3-53.3,63.3-53.7s57.1,21.6,65.1,56.3C667.2,210.1,649.5,212.2,636.7,182.2z"/>
		<circle id="jawMid_3_" cx="625.5" cy="284.1" r="0.8"/>
		<circle id="rightJaw7_3_" cx="614.6" cy="282.1" r="0.8"/>
		<circle id="leftJaw7_3_" cx="636.4" cy="282.1" r="0.8"/>
		<circle id="rightJaw3_3_" cx="580.3" cy="226.6" r="0.8"/>
		<circle id="rightJaw2_3_" cx="580.3" cy="217.1" r="0.8"/>
		<circle id="leftJaw3_3_" cx="668.5" cy="227" r="0.8"/>
		<circle id="leftJaw2_3_" cx="668.5" cy="217.4" r="0.8"/>
		<circle id="topMid_1_" cx="624.7" cy="166" r="0.8"/>
		<circle id="leftTop0_1_" cx="642.4" cy="168.5" r="0.8"/>
		<circle id="rightTop0_1_" cx="606.8" cy="168.5" r="0.8"/>
	</g>
	<path style="fill:#F3AF9D;" d="M968.4,381.4l17-6.8c0,0,6.1,5.5,13,11.2s-4.7,18.4-15.3,10.6C972.4,388.6,968.4,381.4,968.4,381.4z
		"/>
	<path style="fill:#E094A3;" d="M410.4,322.3l3,56.8c58.9,0.3,93.5-2.3,119.3,17.7l48.7-50.2C527.1,319.9,466.4,318.9,410.4,322.3z"
		/>
	<path style="fill:#E094A3;" d="M670.3,345.6l43.3,53.2c27-16.2,67.7-16.3,126.6-16.7v-56.8C784.2,321.9,741,314.9,670.3,345.6z"/>
	<path style="fill:#F3AF9D;" d="M415.6,328.9c-47.7,2.7-123.1,8.9-160.2,14.2c-37.1,5.3-40.1,40.1,5.3,39.5s95.2-3.5,159.7-12.1
		L415.6,328.9z"/>
	<path style="fill:#F3AF9D;" d="M280.2,381.4l-17-6.8c0,0-6.1,5.5-13,11.2s4.7,18.4,15.3,10.6C276.2,388.6,280.2,381.4,280.2,381.4z
		"/>
	<path style="fill:#F3AF9D;" d="M834.3,373.5c64.5,8.6,113.3,11.5,158.7,12.1s42.4-34.2,5.3-39.5c-37.1-5.3-114.5-11.5-162.2-14.2
		L834.3,373.5z"/>
	<g>
		<circle id="nose1_1_" cx="623.7" cy="216.1" r="0.8"/>
		<circle id="nose0_1_" cx="623.7" cy="210.3" r="0.8"/>
		<circle id="nose3_1_" cx="623.7" cy="228.7" r="0.8"/>
		<circle id="rightNose0_1_" cx="613" cy="233.2" r="0.8"/>
		<circle id="rightNose1_1_" cx="618.2" cy="233.2" r="0.8"/>
		<circle id="nose2_1_" cx="623.7" cy="221.6" r="0.8"/>
		<circle id="nose4_1_" cx="623.7" cy="234" r="0.8"/>
		<circle id="leftNose0_1_" cx="634.1" cy="233.2" r="0.8"/>
		<circle id="leftNose1_1_" cx="629.3" cy="233.2" r="0.8"/>
		<path style="fill:#2C323A;stroke:#2C323A;stroke-width:2;stroke-miterlimit:10;" d="M622.4,232.8c-1.2,0-4.6,1.6-5.8,5.2
			c-0.2,1.2,0.6,5.8,6,4.1c-0.1-1-4.7-1.1-4.5-3.7C618.4,236.6,620.1,236.6,622.4,232.8z"/>
	</g>
</g>
<g id="skeleton_1_">
	<polygon style="fill:none;stroke:#000000;stroke-miterlimit:10;" points="518.8,349.5 569.1,565.3 685.5,564.5 731.7,349.5 	"/>
	<polyline style="fill:none;stroke:#000000;stroke-miterlimit:10;" points="517.8,349.5 415.1,349.5 251.8,355.8 	"/>
	<polyline style="fill:none;stroke:#000000;stroke-miterlimit:10;" points="733.2,349.1 836.4,349.1 999.7,355.5 	"/>
	<polyline style="fill:none;stroke:#000000;stroke-miterlimit:10;" points="569.1,565.3 575.5,725.5 575.5,933.5 	"/>
	<polyline style="fill:none;stroke:#000000;stroke-miterlimit:10;" points="685.5,564.5 685.5,725.5 685.5,933.5 	"/>
	<polyline style="fill:none;stroke:#000000;stroke-miterlimit:10;" points="624.5,170 604.7,172.5 592.2,182 583.6,196.1 
		581.1,205.4 580.3,217.1 580.3,226.6 581.1,248.3 587.9,268.3 599.5,280.8 609.5,287.5 624.5,290.7 639.3,287.9 649.3,281.2 
		660.9,268.6 667.7,248.6 668.5,227 668.5,217.4 667.7,205.7 665.2,196.5 657,182 644.4,172.5 624.5,170 	"/>
	<polyline style="fill:none;stroke:#000000;stroke-miterlimit:10;" points="588.5,206.9 592.5,203.2 598.7,202.2 606,202.2 
		615.8,206.2 	"/>
	<polygon style="fill:none;stroke:#000000;stroke-miterlimit:10;" points="594.7,215.1 599.9,211.4 606.2,211.4 611.4,215.6 
		606.2,216.6 599.9,217.4 	"/>
	<polyline style="fill:none;stroke:#000000;stroke-miterlimit:10;" points="613,233.2 618.2,233.2 623.7,234 623.7,228.7 
		623.7,221.6 623.7,216.1 623.7,210.3 	"/>
	<polyline style="fill:none;stroke:#000000;stroke-miterlimit:10;" points="660,206.5 656,203.6 649.7,202.1 642.4,202.5 
		632.4,205.7 	"/>
	<polygon style="fill:none;stroke:#000000;stroke-miterlimit:10;" points="654.1,215.1 648.8,211.4 642.5,211.4 637.4,215.6 
		642.5,216.6 648.8,217.4 	"/>
	<polyline style="fill:none;stroke:#000000;stroke-miterlimit:10;" points="634.1,233.2 629.1,233.2 623.7,234 	"/>
	<polygon style="fill:none;stroke:#000000;stroke-miterlimit:10;" points="607,255.3 613.9,251.9 620.4,250.8 624.5,251.7 
		628.7,250.8 635.1,251.9 642,255.3 635.6,261.6 628.5,264.4 624.5,264.9 620.4,264.4 613.4,261.6 	"/>
	<polyline style="fill:none;stroke:#000000;stroke-miterlimit:10;" points="607,255.3 610.6,255.6 620.6,254.8 624.5,255.3 
		628.5,254.8 638.4,255.6 642,255.3 	"/>
	<polyline style="fill:none;stroke:#000000;stroke-miterlimit:10;" points="607,255.3 610.6,255.6 620.6,257.7 624.5,258.5 
		628.5,257.7 638.4,255.6 642,255.3 	"/>
	<circle id="rightShoulder" cx="518.9" cy="349.2" r="8.2"/>
	<circle id="rightElbow" cx="415.4" cy="349.3" r="8.2"/>
	<circle id="rightWrist" cx="252" cy="355.7" r="8.2"/>
	<circle id="rightHip" cx="569.2" cy="565" r="8.2"/>
	<circle id="rightKnee" cx="575.6" cy="725.2" r="8.2"/>
	<circle id="rightAnkle" cx="575.6" cy="933.2" r="8.2"/>
	<circle id="leftElbow" cx="836.2" cy="348.9" r="8.2"/>
	<circle id="leftWrist" cx="999.6" cy="355.2" r="8.2"/>
	<circle id="leftHip" cx="685.6" cy="564.2" r="8.2"/>
	<circle id="leftKnee" cx="685.6" cy="725.2" r="8.2"/>
	<circle id="leftAnkle" cx="685.6" cy="933.2" r="8.2"/>
	<circle id="rightEye0" cx="594.7" cy="215.1" r="0.8"/>
	<circle id="rightBrow1" cx="592.5" cy="203.2" r="0.8"/>
	<circle id="rightBrow4" cx="615.8" cy="206.2" r="0.8"/>
	<circle id="nose1" cx="623.7" cy="216.1" r="0.8"/>
	<circle id="rightBrow3" cx="606" cy="202.2" r="0.8"/>
	<circle id="rightEye1" cx="599.9" cy="211.4" r="0.8"/>
	<circle id="rightBrow0" cx="588.5" cy="206.9" r="0.8"/>
	<circle id="rightBrow2" cx="598.7" cy="202.2" r="0.8"/>
	<circle id="rightEye5" cx="599.9" cy="217.4" r="0.8"/>
	<circle id="rightEye2" cx="606.2" cy="211.4" r="0.8"/>
	<circle id="rightEye3" cx="611.4" cy="215.6" r="0.8"/>
	<circle id="nose0" cx="623.7" cy="210.3" r="0.8"/>
	<circle id="nose3" cx="623.7" cy="228.7" r="0.8"/>
	<circle id="rightNose0" cx="613" cy="233.2" r="0.8"/>
	<circle id="rightMouthCorner" cx="607" cy="255.3" r="0.8"/>
	<circle id="rightNose1" cx="618.2" cy="233.2" r="0.8"/>
	<circle id="rightUpperLipTop0" cx="613.9" cy="251.9" r="0.8"/>
	<circle id="nose2" cx="623.7" cy="221.6" r="0.8"/>
	<circle id="nose4" cx="623.7" cy="234" r="0.8"/>
	<circle id="upperLipTopMid" cx="624.5" cy="251.7" r="0.8"/>
	<circle id="rightUpperLipTop1" cx="620.4" cy="250.8" r="0.8"/>
	<path id="rightMiddleLip" d="M610.6,254.8c0.4,0,0.8,0.4,0.8,0.8c0,0.4-0.4,0.8-0.8,0.8s-0.8-0.4-0.8-0.8S610.2,254.8,610.6,254.8z
		"/>
	<circle id="lowerLipBottomMid" cx="624.5" cy="264.9" r="0.8"/>
	<circle id="upperLipBottomMid" cx="624.5" cy="255.3" r="0.8"/>
	<circle id="lowerLipTopMid" cx="624.5" cy="258.4" r="0.8"/>
	<circle id="rightUpperLipBottom1" cx="620.6" cy="254.8" r="0.8"/>
	<circle id="rightLowerLipTop0" cx="620.6" cy="257.7" r="0.8"/>
	<circle id="rightLowerLipBottom1" cx="620.4" cy="264.4" r="0.8"/>
	<circle id="rightLowerLipBottom0" cx="613.4" cy="261.6" r="0.8"/>
	<circle id="rightEye4" cx="606.2" cy="216.6" r="0.8"/>
	<circle id="jawMid" cx="624.5" cy="290.7" r="0.8"/>
	<circle id="rightJaw7" cx="609.5" cy="287.5" r="0.8"/>
	<circle id="rightJaw6" cx="599.5" cy="280.8" r="0.8"/>
	<circle id="rightJaw5" cx="587.9" cy="268.3" r="0.8"/>
	<circle id="rightJaw4" cx="581.1" cy="248.3" r="0.8"/>
	<circle id="rightJaw3" cx="580.3" cy="226.6" r="0.8"/>
	<circle id="rightJaw2" cx="580.3" cy="217.1" r="0.8"/>
	<circle id="rightJaw1" cx="581.1" cy="205.4" r="0.8"/>
	<circle id="rightJaw0" cx="583.6" cy="196.1" r="0.8"/>
	<circle id="topMid" cx="624.7" cy="170" r="0.8"/>
	<circle id="leftTop0" cx="644.4" cy="172.5" r="0.8"/>
	<circle id="leftTop1" cx="657" cy="182" r="0.8"/>
	<circle id="leftEye0" cx="654.3" cy="215.1" r="0.8"/>
	<circle id="leftBrow1" cx="656.2" cy="203.6" r="0.8"/>
	<circle id="leftBrow4" cx="632.6" cy="205.7" r="0.8"/>
	<circle id="leftBrow3" cx="642.6" cy="202.5" r="0.8"/>
	<circle id="leftEye1" cx="649.1" cy="211.4" r="0.8"/>
	<circle id="leftBrow0" cx="660.2" cy="206.5" r="0.8"/>
	<circle id="leftBrow2" cx="649.9" cy="202.1" r="0.8"/>
	<circle id="leftEye5" cx="649.1" cy="217.4" r="0.8"/>
	<circle id="leftEye2" cx="642.8" cy="211.4" r="0.8"/>
	<circle id="leftEye3" cx="637.6" cy="215.6" r="0.8"/>
	<circle id="leftNose0" cx="634.1" cy="233.2" r="0.8"/>
	<circle id="leftMouthCorner" cx="642" cy="255.3" r="0.8"/>
	<circle id="leftNose1" cx="629.3" cy="233.2" r="0.8"/>
	<circle id="leftUpperLipTop0" cx="635.1" cy="251.9" r="0.8"/>
	<circle id="leftUpperLipTop1" cx="628.7" cy="250.8" r="0.8"/>
	<path id="leftMiddleLip" d="M638.4,254.8c0.4,0,0.8,0.4,0.8,0.8c0,0.4-0.4,0.8-0.8,0.8s-0.8-0.4-0.8-0.8S638,254.8,638.4,254.8z"/>
	<circle id="leftUpperLipBottom1" cx="628.5" cy="254.8" r="0.8"/>
	<circle id="leftLowerLipTop0" cx="628.5" cy="257.7" r="0.8"/>
	<circle id="leftLowerLipBottom1" cx="628.7" cy="264.4" r="0.8"/>
	<circle id="leftLowerLipBottom0" cx="635.6" cy="261.6" r="0.8"/>
	<circle id="leftEye4" cx="642.8" cy="216.6" r="0.8"/>
	<circle id="leftJaw7" cx="639.3" cy="287.9" r="0.8"/>
	<circle id="leftJaw6" cx="649.3" cy="281.2" r="0.8"/>
	<circle id="leftJaw5" cx="660.9" cy="268.6" r="0.8"/>
	<circle id="leftJaw4" cx="667.7" cy="248.6" r="0.8"/>
	<circle id="leftJaw3" cx="668.5" cy="227" r="0.8"/>
	<circle id="leftJaw2" cx="668.5" cy="217.4" r="0.8"/>
	<circle id="leftJaw1" cx="667.7" cy="205.7" r="0.8"/>
	<circle id="leftJaw0" cx="665.2" cy="196.5" r="0.8"/>
	<circle id="rightTop0" cx="604.8" cy="172.5" r="0.8"/>
	<circle id="rightTop1" cx="592.2" cy="182" r="0.8"/>
	<circle id="leftShoulder" cx="731.8" cy="349.2" r="8.2"/>
</g>
</svg>
